# xmcd
#
# Track frame offsets: 
#        150
#        13875
#        35640
#        52137
#        72237
#        90462
#        113725
#        130622
#        138927
#        141292
#        156725
#        179707
#        203830
#        220122
#        231615
#
# Disc length: 3291 seconds
#
# Revision: 3
# Processed by: cddbd v1.5.2PL0 Copyright (c) Steve Scherf et al.
# Submitted via: ExactAudioCopy v0.95b4
#
DISCID=ea0cd90f
DTITLE=Earth, Wind and Fire - Open Our Eyes
DYEAR=1974
DGENRE=Soul
TTITLE0=Mighty Mighty
TTITLE1=Devotion
TTITLE2=Fair But So Uncool
TTITLE3=Feelin' Blue
TTITLE4=Kalimba Story
TTITLE5=Drum Song
TTITLE6=Tee Nine Chee Bit
TTITLE7=Spasmodic Movements
TTITLE8=Rabbit Seed
TTITLE9=Caribou
TTITLE10=Open Our Eyes
TTITLE11=Ain't No Harm To Moan (Slave Song)
TTITLE12=Fair But So Uncool (Walkin' In N'Awlins Mix)
TTITLE13=Step's Tune
TTITLE14=Dreams
EXTD=EARTH, WIND and FIRE - OPEN OUR EYES\n\nColumbia/Legacy - Sony © 20
EXTD=01\nDigitally remastered - 4 previously unreleased bonus tracks\nC
EXTD=OL 501500 2
EXTT0=
EXTT1=
EXTT2=
EXTT3=
EXTT4=
EXTT5=
EXTT6=
EXTT7=
EXTT8=
EXTT9=
EXTT10=
EXTT11=
EXTT12=
EXTT13=
EXTT14=
PLAYORDER=
